HIERARCHY
ROOT Hips
{
	OFFSET 0.000000 0.000000 0.000000
	CHANNELS 6 Xposition Yposition Zposition Xrotation Yrotation Zrotation
	JOINT LeftUpLeg_virtual
	{
		OFFSET 0.000000 0.000000 0.000000
		CHANNELS 3 Xrotation Yrotation Zrotation
		JOINT LeftUpLeg
		{
			OFFSET 11.394100 -6.187798 -0.413800
			CHANNELS 3 Xrotation Yrotation Zrotation
			JOINT LeftLeg
			{
				OFFSET 0.430247 -32.302673 3.732800
				CHANNELS 3 Xrotation Yrotation Zrotation
				JOINT LeftFoot
				{
					OFFSET -0.430247 -48.264931 -6.423300
					CHANNELS 3 Xrotation Yrotation Zrotation
					JOINT LeftToeBase
					{
						OFFSET 4.230900 -16.068199 23.438400
						CHANNELS 3 Xrotation Yrotation Zrotation
						JOINT LeftToe_End
						{
							OFFSET 4.510700 0.695400 19.974600
							CHANNELS 3 Xrotation Yrotation Zrotation
							End Site
							{
								OFFSET 0 0 0
							}
						}
					}
				}
			}
		}
	}
	JOINT RightUpLeg_virtual
	{
		OFFSET 0.000000 0.000000 0.000000
		CHANNELS 3 Xrotation Yrotation Zrotation
		JOINT RightUpLeg
		{
			OFFSET -11.333700 -6.187798 -0.413800
			CHANNELS 3 Xrotation Yrotation Zrotation
			JOINT RightLeg
			{
				OFFSET -0.430392 -32.302628 3.733000
				CHANNELS 3 Xrotation Yrotation Zrotation
				JOINT RightFoot
				{
					OFFSET 0.430392 -48.264973 -6.423500
					CHANNELS 3 Xrotation Yrotation Zrotation
					JOINT RightToeBase
					{
						OFFSET -4.230900 -16.068199 23.438400
						CHANNELS 3 Xrotation Yrotation Zrotation
						JOINT RightToe_End
						{
							OFFSET -4.510700 0.695400 19.974600
							CHANNELS 3 Xrotation Yrotation Zrotation
							End Site
							{
								OFFSET 0 0 0
							}
						}
					}
				}
			}
		}
	}
	JOINT Spine_virtual
	{
		OFFSET 0.000000 0.000000 0.000000
		CHANNELS 3 Xrotation Yrotation Zrotation
		JOINT Spine
		{
			OFFSET -0.002400 12.777504 0.315300
			CHANNELS 3 Xrotation Yrotation Zrotation
			JOINT Spine1
			{
				OFFSET -0.002067 5.816869 0.032633
				CHANNELS 3 Xrotation Yrotation Zrotation
				JOINT Spine1_split
				{
					OFFSET -0.002067 5.816869 0.032633
					CHANNELS 3 Xrotation Yrotation Zrotation
					JOINT Spine2
					{
						OFFSET -0.002067 5.816869 0.032633
						CHANNELS 3 Xrotation Yrotation Zrotation
						JOINT Neck_virtual
						{
							OFFSET 0.000000 0.000000 0.000000
							CHANNELS 3 Xrotation Yrotation Zrotation
							JOINT Neck
							{
								OFFSET -0.003700 21.199493 -0.826900
								CHANNELS 3 Xrotation Yrotation Zrotation
								JOINT Head
								{
									OFFSET 0.000000 20.442200 4.834800
									CHANNELS 3 Xrotation Yrotation Zrotation
									JOINT HeadTop_End
									{
										OFFSET 0.000000 34.668396 4.968400
										CHANNELS 3 Xrotation Yrotation Zrotation
										End Site
										{
											OFFSET 0 0 0
										}
									}
								}
							}
						}
						JOINT LeftShoulder_virtual
						{
							OFFSET 0.000000 0.000000 0.000000
							CHANNELS 3 Xrotation Yrotation Zrotation
							JOINT LeftShoulder
							{
								OFFSET 3.288150 8.794197 -1.372250
								CHANNELS 3 Xrotation Yrotation Zrotation
								JOINT LeftShoulder_split
								{
									OFFSET 3.288150 8.794197 -1.372250
									CHANNELS 3 Xrotation Yrotation Zrotation
									JOINT LeftArm
									{
										OFFSET 11.953299 -2.279007 -0.146200
										CHANNELS 3 Xrotation Yrotation Zrotation
										JOINT LeftForeArm
										{
											OFFSET 18.448900 0.000000 0.000000
											CHANNELS 3 Xrotation Yrotation Zrotation
											JOINT LeftHand
											{
												OFFSET 29.527798 0.000000 0.000000
												CHANNELS 3 Xrotation Yrotation Zrotation
												End Site
												{
													OFFSET 0 0 0
												}
											}
										}
									}
								}
							}
						}
						JOINT RightShoulder_virtual
						{
							OFFSET 0.000000 0.000000 0.000000
							CHANNELS 3 Xrotation Yrotation Zrotation
							JOINT RightShoulder
							{
								OFFSET -3.249400 8.794197 -1.372250
								CHANNELS 3 Xrotation Yrotation Zrotation
								JOINT RightShoulder_split
								{
									OFFSET -3.249400 8.794197 -1.372250
									CHANNELS 3 Xrotation Yrotation Zrotation
									JOINT RightArm
									{
										OFFSET -11.953299 -2.279007 -0.146200
										CHANNELS 3 Xrotation Yrotation Zrotation
										JOINT RightForeArm
										{
											OFFSET -18.448900 0.000000 0.000000
											CHANNELS 3 Xrotation Yrotation Zrotation
											JOINT RightHand
											{
												OFFSET -29.527802 0.000000 0.000000
												CHANNELS 3 Xrotation Yrotation Zrotation
												End Site
												{
													OFFSET 0 0 0
												}
											}
										}
									}
								}
							}
						}
					}
				}
			}
		}
	}
}
MOTION
Frames: 9
Frame Time: 0.03333333
0.358617 96.370125 0.444649 0.000000 0.000000 0.000000 -1.618147 -25.681670 0.146956 -27.586970 23.379606 11.837841 23.790585 8.494236 11.331766 0.533330 -0.026249 -12.258810 1.450318 -0.046640 -2.841104 0.000000 0.000000 0.000000 -2.105785 -24.566760 0.284791 -19.509629 -18.433036 -7.975143 25.379468 -2.022372 -9.546459 -9.583799 -0.786568 9.944889 -1.612384 0.065931 0.186407 0.000000 0.000000 0.000000 -0.697908 -26.505903 0.049238 4.268484 -1.741175 1.071265 0.699922 -0.655055 0.152518 1.060386 -0.528224 0.330913 0.000000 0.000000 0.000000 0.778355 -0.789241 0.222609 -2.344206 1.489472 3.336110 17.565904 23.790280 -12.645049 0.000000 0.000000 0.000000 1.370341 -0.724556 0.178842 -0.672670 2.473641 4.315570 -1.539685 0.045480 -0.334372 -53.291052 -2.265722 -49.333674 -13.354652 -87.428689 -13.009645 0.000000 0.000000 0.000000 2.229087 -0.379511 0.047573 -1.104484 -11.039271 11.057531 0.877831 1.841940 0.146195 -63.700004 64.954122 79.218870 -21.372902 87.324310 21.364483 0.000000 0.000000 0.000000 
0.360508 96.356361 0.446629 0.000000 0.000000 0.000000 -1.588027 -25.688565 0.190741 -27.590518 23.441698 11.836828 23.811296 8.478936 11.321616 0.510853 -0.070252 -12.280610 1.444565 -0.043014 -2.840580 0.000000 0.000000 0.000000 -2.083671 -24.555162 0.325743 -19.597652 -18.610242 -8.009096 25.431461 -1.876955 -9.644653 -9.555688 -0.769089 9.971012 -1.668885 0.057742 0.163645 0.000000 0.000000 0.000000 -0.671374 -26.541179 0.085959 4.250490 -1.772056 1.084391 0.680761 -0.662343 0.151746 1.060537 -0.529828 0.322341 0.000000 0.000000 0.000000 0.766342 -0.797392 0.221689 -2.323788 1.506370 3.333956 17.582235 23.808397 -12.650375 0.000000 0.000000 0.000000 1.353653 -0.731277 0.179983 -0.674234 2.497156 4.229104 -1.550747 0.028018 -0.340313 -53.269878 -2.333363 -49.261783 -12.866224 -87.323941 -12.521243 0.000000 0.000000 0.000000 2.213002 -0.391227 0.044864 -1.101573 -11.046048 11.041499 0.892626 1.842671 0.146356 -63.739189 64.997016 79.188776 -21.264337 87.325335 21.268084 0.000000 0.000000 0.000000 
0.367269 96.338524 0.447445 0.000000 0.000000 0.000000 -1.558121 -25.695129 0.232598 -27.611169 23.522398 11.861841 23.833452 8.446022 11.307352 0.485487 -0.129688 -12.302472 1.431215 -0.042206 -2.836523 0.000000 0.000000 0.000000 -2.059712 -24.538652 0.366362 -19.700893 -18.800763 -8.050854 25.497450 -1.712201 -9.748086 -9.529739 -0.747001 10.004395 -1.707626 0.050762 0.137864 0.000000 0.000000 0.000000 -0.641173 -26.582330 0.126374 4.235027 -1.807703 1.096502 0.659083 -0.671636 0.151707 1.058376 -0.529437 0.313840 0.000000 0.000000 0.000000 0.757190 -0.807906 0.220516 -2.309111 1.519771 3.338164 17.594965 23.824712 -12.652940 0.000000 0.000000 0.000000 1.336926 -0.741070 0.181119 -0.672083 2.507661 4.142732 -1.559384 0.017878 -0.339559 -53.270227 -2.397201 -49.176068 -12.359247 -87.233100 -12.016505 0.000000 0.000000 0.000000 2.197611 -0.404653 0.043016 -1.097533 -11.035844 11.012355 0.896154 1.859097 0.144928 -63.755527 65.010868 79.150295 -21.203016 87.329651 21.218596 0.000000 0.000000 0.000000 
0.376639 96.319916 0.449318 0.000000 0.000000 0.000000 -1.530826 -25.700566 0.272269 -27.635077 23.611016 11.902283 23.846909 8.408199 11.290257 0.454767 -0.188159 -12.319690 1.422726 -0.043815 -2.832030 0.000000 0.000000 0.000000 -2.036309 -24.522775 0.406400 -19.806819 -18.980006 -8.098574 25.580442 -1.540336 -9.849175 -9.498495 -0.724783 10.052532 -1.754285 0.044857 0.106088 0.000000 0.000000 0.000000 -0.613401 -26.625199 0.169427 4.218943 -1.847611 1.109391 0.636567 -0.682823 0.153192 1.053657 -0.525031 0.303857 0.000000 0.000000 0.000000 0.751286 -0.820773 0.220828 -2.297214 1.530186 3.342254 17.608982 23.840325 -12.660177 0.000000 0.000000 0.000000 1.321978 -0.753806 0.183660 -0.666678 2.507355 4.058593 -1.565512 0.009302 -0.330457 -53.305556 -2.453300 -49.080384 -11.771928 -87.144731 -11.432090 0.000000 0.000000 0.000000 2.184862 -0.419210 0.043182 -1.093025 -11.004348 10.958324 0.896114 1.888585 0.138075 -63.779856 65.001141 79.134585 -21.088870 87.321530 21.111953 0.000000 0.000000 0.000000 
0.382910 96.304092 0.453941 0.000000 0.000000 0.000000 -1.514945 -25.711928 0.307291 -27.643070 23.692818 11.943878 23.836667 8.380616 11.275805 0.419907 -0.229643 -12.332020 1.422136 -0.046447 -2.827549 0.000000 0.000000 0.000000 -2.018317 -24.514722 0.444689 -19.909370 -19.122563 -8.148064 25.671065 -1.375736 -9.938362 -9.463244 -0.707108 10.116303 -1.815108 0.039756 0.072043 0.000000 0.000000 0.000000 -0.593166 -26.666076 0.212315 4.200869 -1.891028 1.125600 0.614337 -0.695541 0.157792 1.045174 -0.518588 0.294613 0.000000 0.000000 0.000000 0.748801 -0.836109 0.223843 -2.281727 1.541458 3.338366 17.631425 23.856017 -12.680303 0.000000 0.000000 0.000000 1.310282 -0.769305 0.189345 -0.659517 2.499872 3.979218 -1.565762 0.012846 -0.309751 -53.376043 -2.497302 -48.979847 -11.135874 -87.049122 -10.795202 0.000000 0.000000 0.000000 2.176256 -0.434929 0.046489 -1.089173 -10.948850 10.863393 0.894403 1.918888 0.136549 -63.851190 64.979169 79.181864 -20.820672 87.289995 20.846176 0.000000 0.000000 0.000000 
0.383627 96.295113 0.458107 0.000000 0.000000 0.000000 -1.508056 -25.726227 0.337869 -27.623467 23.757978 11.975402 23.800452 8.371383 11.266511 0.386365 -0.245671 -12.341596 1.422451 -0.049213 -2.822206 0.000000 0.000000 0.000000 -2.007616 -24.521221 0.478985 -19.996127 -19.209733 -8.195677 25.755832 -1.230503 -10.008850 -9.437369 -0.697730 10.177655 -1.865594 0.035974 0.042218 0.000000 0.000000 0.000000 -0.581630 -26.704622 0.253915 4.178302 -1.936017 1.147530 0.594585 -0.710239 0.166587 1.040517 -0.508805 0.291243 0.000000 0.000000 0.000000 0.748432 -0.854500 0.231061 -2.259005 1.555777 3.320430 17.663450 23.875560 -12.718639 0.000000 0.000000 0.000000 1.302110 -0.787899 0.199687 -0.651769 2.490294 3.902658 -1.564834 0.026687 -0.277617 -53.480432 -2.530492 -48.884371 -10.433879 -86.932544 -10.088024 0.000000 0.000000 0.000000 2.171721 -0.452433 0.053598 -1.085947 -10.871061 10.722315 0.893944 1.945181 0.140409 -63.983703 64.950946 79.307854 -20.378916 87.227096 20.400506 0.000000 0.000000 0.000000 
0.378149 96.294708 0.458961 0.000000 0.000000 0.000000 -1.511858 -25.739563 0.362249 -27.576499 23.797562 11.989922 23.740921 8.385322 11.263499 0.367298 -0.236121 -12.355415 1.419333 -0.050665 -2.815725 0.000000 0.000000 0.000000 -2.005427 -24.543528 0.507856 -20.055932 -19.234593 -8.233283 25.829827 -1.124935 -10.051430 -9.433766 -0.702649 10.203486 -1.861406 0.035071 0.028090 0.000000 0.000000 0.000000 -0.577067 -26.737972 0.292396 4.151378 -1.980337 1.177705 0.577914 -0.727396 0.180213 1.041258 -0.504147 0.287167 0.000000 0.000000 0.000000 0.747378 -0.876042 0.243281 -2.224013 1.577333 3.284816 17.707841 23.901378 -12.777129 0.000000 0.000000 0.000000 1.296333 -0.809374 0.215230 -0.644506 2.483204 3.826862 -1.561770 0.054028 -0.241925 -53.598957 -2.552359 -48.798649 -9.751509 -86.788618 -9.393553 0.000000 0.000000 0.000000 2.169158 -0.472129 0.065339 -1.083213 -10.776424 10.539155 0.893259 1.970322 0.149955 -64.187420 64.923701 79.519979 -19.728218 87.125948 19.739827 0.000000 0.000000 0.000000 
0.367879 96.302017 0.459904 0.000000 0.000000 0.000000 -1.524612 -25.756657 0.379504 -27.509430 23.807149 11.985928 23.671154 8.421473 11.266498 0.370692 -0.207796 -12.375220 1.412300 -0.050706 -2.808689 0.000000 0.000000 0.000000 -2.012260 -24.582380 0.529708 -20.088601 -19.199769 -8.259684 25.881171 -1.067977 -10.060326 -9.451690 -0.722183 10.179158 -1.795511 0.037897 0.029718 0.000000 0.000000 0.000000 -0.580380 -26.768748 0.324743 4.121013 -2.020686 1.215528 0.565004 -0.746630 0.198401 1.045631 -0.507904 0.289477 0.000000 0.000000 0.000000 0.743232 -0.899666 0.260067 -2.178907 1.605686 3.232078 17.761417 23.933657 -12.850827 0.000000 0.000000 0.000000 1.292730 -0.833294 0.235326 -0.637890 2.480557 3.749369 -1.560673 0.090651 -0.211071 -53.711505 -2.564923 -48.725067 -9.133722 -86.616320 -8.757963 0.000000 0.000000 0.000000 2.165940 -0.493533 0.081461 -1.080860 -10.672619 10.327271 0.892963 1.995896 0.160346 -64.447548 64.897589 79.807960 -18.868920 86.977610 18.866473 0.000000 0.000000 0.000000 
0.352964 96.314453 0.458565 0.000000 0.000000 0.000000 -1.543885 -25.779364 0.392433 -27.431109 23.783955 11.959612 23.605417 8.476597 11.275234 0.389809 -0.163580 -12.395243 1.410534 -0.049364 -2.805533 0.000000 0.000000 0.000000 -2.024641 -24.629314 0.546332 -20.094560 -19.119175 -8.273282 25.908014 -1.058025 -10.035877 -9.478501 -0.752034 10.118936 -1.705582 0.044234 0.042371 0.000000 0.000000 0.000000 -0.589059 -26.796181 0.349926 4.089129 -2.052890 1.258350 0.556549 -0.766909 0.218832 1.050265 -0.514615 0.291888 0.000000 0.000000 0.000000 0.733957 -0.923252 0.279569 -2.126554 1.639159 3.167592 17.820134 23.970146 -12.931266 0.000000 0.000000 0.000000 1.290234 -0.857796 0.257605 -0.631358 2.484755 3.670039 -1.563510 0.131823 -0.191258 -53.797019 -2.575056 -48.661232 -8.616581 -86.426366 -8.219993 0.000000 0.000000 0.000000 2.159781 -0.514712 0.100028 -1.078298 -10.568466 10.111095 0.891937 2.025653 0.165836 -64.726547 64.875452 80.131889 -17.891161 86.785203 17.872191 0.000000 0.000000 0.000000 
